<svg xmlns="http://www.w3.org/2000/svg" xmlns:xlink="http://www.w3.org/1999/xlink" width="580" height="384" viewBox="0 0 580 384">
    <defs>
        <path id="a" d="M0 0h580v384H0z"/>
        <linearGradient id="b" x1="0%" y1="50%" y2="50%">
            <stop offset="0%" stop-color="#4395C0"/>
            <stop offset="100%" stop-color="#205C8C"/>
        </linearGradient>
        <linearGradient id="d" x1="0%" y1="50%" y2="50%">
            <stop offset="0%" stop-color="#4395C0"/>
            <stop offset="100%" stop-color="#205C8C"/>
        </linearGradient>
        <linearGradient id="e" x1="-.009%" x2="99.992%" y1="49.998%" y2="49.998%">
            <stop offset="0%" stop-color="#1E5E8B"/>
            <stop offset="100%" stop-color="#2873A6"/>
        </linearGradient>
        <linearGradient id="f" x1="-.03%" x2="99.998%" y1="50.009%" y2="50.009%">
            <stop offset="0%" stop-color="#1E5E8B"/>
            <stop offset="100%" stop-color="#2873A6"/>
        </linearGradient>
        <linearGradient id="g" x1="-.026%" x2="100.016%" y1="49.991%" y2="49.991%">
            <stop offset="0%" stop-color="#F1EEF7"/>
            <stop offset="100%" stop-color="#FFF"/>
        </linearGradient>
        <linearGradient id="h" x1=".025%" y1="50.005%" y2="50.005%">
            <stop offset="0%" stop-color="#F1EEF7"/>
            <stop offset="100%" stop-color="#FFF"/>
        </linearGradient>
        <linearGradient id="i" x1="-.007%" x2="99.982%" y1="50.021%" y2="50.021%">
            <stop offset="0%" stop-color="#1E5E8B"/>
            <stop offset="100%" stop-color="#2873A6"/>
        </linearGradient>
    </defs>
    <g fill="none" fill-rule="evenodd">
        <mask id="c" fill="#fff">
            <use xlink:href="#a"/>
        </mask>
        <path fill="url(#b)" fill-rule="nonzero" d="M0 .582c8.038 44.92 26.302 72.636 54.792 83.146 42.735 15.765 86.074 2.886 102.896 41.819 16.823 38.933-11.495 136.244-5.748 159.688 5.748 23.445 25.629 51.481 86.632 49.306 61.004-2.175 137.7-16.827 193.604-4.995 55.906 11.833 111.744 74.924 149.045 48.706V0L0 .582z" mask="url(#c)" opacity=".05" transform="matrix(1 0 0 -1 0 384.57)"/>
        <path fill="url(#d)" fill-rule="nonzero" d="M55.38 39.02c-4.311 41.048 7.778 66.828 36.268 77.338 42.736 15.765 67.748 9.261 84.57 48.194 16.823 38.933-29.617 136.035-23.87 159.479 5.748 23.444 25.629 38.216 86.632 36.041 61.004-2.175 137.7-22.659 193.605-10.826 55.905 11.833 110.86 52.85 148.16 26.634 0-.884.294-113.17.884-336.86H55.38z" mask="url(#c)" opacity=".05" transform="matrix(1 0 0 -1 0 423.494)"/>
        <g mask="url(#c)">
            <g fill-rule="nonzero" transform="translate(110.415 37.058)">
                <circle cx="387.887" cy="85.273" r="60.141" fill="#FCB551" transform="rotate(-45 387.887 85.273)"/>
                <path fill="#FFF" d="M162.016 154.325c12.422 4.186 86.768 0 103.112.27-1.511-.65-5.227-1.446-10.493-2.213 3.687-3.655-2.037-12.397-6.93-10.828.207-1.928-1.58-4.18-4.02-3.675a7.887 7.887 0 0 0-9.514-5.74 10.496 10.496 0 0 0-9.695-6.464c-.975 0-1.915.133-2.806.38-2.544-5.446-8.066-9.224-14.479-9.224-8.82 0-15.97 7.147-15.97 15.962 0 .836.064 1.658.187 2.46a9.095 9.095 0 0 0-1.88-.197c-4.957 0-8.978 4.019-8.978 8.973 0 .6.06 1.185.173 1.75a3.359 3.359 0 0 0-1.556 5.348c-6.068.758-11.865 1.805-17.151 3.198"/>
                <path fill="#BBDAE9" d="M143.16 298.42l2.337-4.95c-6.58 5.894-10.094 7.178-14.179 10.021-1.186.826-2.313 2.046-3.37 2.912 1.16.29 2.554.738 3.326.969-.866.01-4.68-.014-5.404.103l-.058.01c-1.33.261-2.974.158-5.06 1.52-2.057 1.344-2.993 7.684-6.25 13.12l.836 1.702-2.077.152c-1.215 1.624-2.702 3.09-4.567 4.206-3.617 2.17-7.589 3.07-9.238 5.16-.418.532-1.053 1.727-1.624 3.252 2.21-.807 4.946-.733 4.946-.733s-2.869.846-5.704 3.158c-1.063 4.216-.994 9.366 3.977 10.882 7.121-13.74 16.103-29.334 42.11-51.485zm-39.993 52.394c9.272 3.576 17.718-5.062 18.677-6.15 0 0-1.53-2.567-1.993-3.511 0 0 1.363 1.907 2.363 2.744 2.854-1.904 7.062-6.695 8.017-8.412-1.673-.703-7.28-7.925-8.313-8.727 0 0 7.59 3.7 10.026 4.536 4.449-3.35 7.83-10.384 9.1-12.258-1.448-1.097-8.249-3.035-8.249-3.035 1.378-.015 6.23 1.52 8.672 2.45.373-.49.756-.972 1.147-1.447-2.161-.693-5.562-1.367-6.162-1.309 1.398-.157 4.94.207 6.87.428 1.556-1.938 3.391-4.3 4.356-6.42-1.029.055-8.224-.89-9.282-1.583 0 0 7.623 1.225 8.938.758 1.574-1.687 2.416-6.627 2.416-6.627-.26-.01-6.496-.039-8.873.247 0 0 5.59-.861 8.636-1.088 0 0 .114-.905-.408-2.051-1.048-.462-5.089-.969-5.935-.945-26.966 26.156-33.94 39.59-40.003 52.4z"/>
                <path fill="#93C1DB" d="M103.676 305.505c-2.342-1.653-4.897-3.109-6.753-3.995l.045.02 2.431 10.744 4.277-6.77v.001zm5.173 4.713c-.994-1.407-2.712-2.922-4.622-4.315l-4.616 7.31 1.94 8.565 7.298-11.56zm2.844 8.387c-.767-3.429-1.698-6.33-2.372-7.62a8.665 8.665 0 0 0-.108-.197l.034.06-7.49 11.86 1.94 8.564 7.997-12.667h-.001zm1.61 10.35c-.177-2.154-.517-4.442-.94-6.936-.143-.836-.3-1.668-.468-2.47l-7.992 12.657 1.94 8.565 7.46-11.816zm.079 1.082c-.005-.099-.01-.202-.02-.3.005.103.015.202.02.3zm-5.818 18.344c4.951-6.44 6.192-11.801 5.823-18.29l-7.333 11.61 1.51 6.68zM93.78 334.518c2.456 6.017 5.886 10.32 13.126 14.005l-1.511-6.68-11.615-7.325zm-3.194-10.157c.196.801.408 1.613.64 2.43.693 2.434 1.373 4.643 2.135 6.665l11.822 7.457-1.94-8.564-12.657-7.989zm-1.354-8.993c-.004.054-.004.103-.01.153-.054 1.451.355 4.476 1.137 7.9l12.673 7.998-1.94-8.564-11.86-7.487zm2.407-6.621c-1.122 2.081-2.023 4.18-2.313 5.883l11.566 7.296-1.94-8.565-7.313-4.614zm4.7-7.103c-1.295 1.593-2.973 4.009-4.375 6.508l6.777 4.275-2.431-10.744.029-.04z"/>
                <path fill="#679FC6" d="M91.763 338.427c-.27 1.058-.797 1.84-1.176 1.742-.38-.1-.468-1.033-.197-2.091.27-1.058.798-1.84 1.176-1.741.38.098.468 1.032.197 2.09zm2.254 2.961c-.138.256-.349.414-.472.345-.124-.064-.114-.33.024-.586.138-.256.35-.413.473-.344s.113.33-.025.585zm-2.692 9.328c-.187.383-.468.629-.625.555-.158-.078-.133-.453.06-.836.186-.384.467-.63.624-.556.157.079.133.452-.059.836zm-3.642-16.411c-.458-.074-1.383 1.353-1.634 2.479-.25 1.127-.226 1.953.616 2.199 1.382.413 1.688-4.545 1.018-4.678zm-4.518-.158c.217.04.561.841.522 1.643-.035.803-.3 1.107-.556 1.206-.256.098-.773-.06-.945-.59-.168-.537.27-2.568.979-2.259zm-11.413 1.319c.625-.167 1.082-.595 1.024-.955-.06-.359-.62-.516-1.246-.349-.625.167-1.082.595-1.023.954.064.36.62.517 1.245.35zm3.568 4.146c-.172-.354.483-1.249 1.019-1.677.536-.428 1.24-.389 1.481-.241.242.148.482.66.02 1.245-.458.59-2.2 1.45-2.52.673zm3.238 4.32c-.206-.296.335-1.643 1.324-2.544.99-.895 1.659-.94 2.078-.757.413.182.836.984.408 1.805-.434.826-3.347 2.691-3.81 1.496zm7.771 6.084c-.206-.284.507-1.51 1.059-2.174.551-.663 1.506-1.27 1.836-.895.33.369-.202 1.289-.66 1.83-.467.541-2.018 1.52-2.235 1.24zm-3.882-2.543c-.276-.373.565-1.85 1.447-2.592.886-.743 1.629-1.102 2.239-.467.999 1.033-3.258 3.59-3.687 3.06zm-20.09-24.114c1.196-1.082 2.51-1.987 3.213-1.712 1.497.586 2.82 6.415 4.312 6.066.527-.226-1.905-5.701-2.53-6.444-.423-.507-.984-.521-1.373-.433a.084.084 0 0 1-.099-.05.09.09 0 0 1 .025-.107c.886-.684 2.913-1.63 3.632-1.29.325.153 2.426 2.126 3.288 4.654 1.344 3.95 1.752 8.983 3.775 8.471 1.565-.324-2.156-9.848-6.31-14.398a.252.252 0 0 1-.059-.246.267.267 0 0 1 .168-.187c1.313-.463 4.198-.477 5-.88.817.713 2.284 2.464 3.105 4.717 1.305 3.576 2.161 8.126 2.767 10.153.747 2.524 1.79.212 1.451-1.574-.325-1.727-1.757-10.62-3.927-13.847a.299.299 0 0 1-.035-.28.3.3 0 0 1 .207-.193c1.816-.511 5.571-.005 6.925 2.588.546 1.048 1.319 3.202 1.442 5.544.201 3.945-.453 8.352.142 8.367.207.015.857-1.397.857-2.809-.005-2.465-.803-5.647-.871-6.414-.064-.704-.33-3.847-.96-5.052-.02-.034-.01-.074.015-.104a.083.083 0 0 1 .103-.014c3.116 1.574 4.685 1.072 6.506 3.767 1.6 2.411-1.319 11.807-.674 12.288.645.483 2.018-.988 2.175-3.66.158-2.665-.624-7.319-.826-7.968 1.284.551 5.807.782 6.476 4.457.798 5.233-5.152 10.025-4.11 10.797.321.236 1.074-1.013 1.197-1.21 1.535-2.499 4.149-7.934 4.626-8.776-.615 2.052 4.238 4.152 2.51 8.151-.787 1.825-7.092 4.546-6.422 6.46.074.594 1.742.895 4.818-3.794.231.827 2.175 1.29 2.357 2.366.177 1.078-.635 2.175-.738 3.095-.202 1.825.01 2.878-.97 4.019-1.023 1.186-2.333 1.333-3.646 1.018-.783-.187-3.086-1.638-4.583-2.248-3.05-2.076-17.466-9.622-32.94-23.288h-.02zm6.766 11.01c-.122-1.265-3.09-.33-6.127-.847-3.011-.506-5.999-1.667-5.478-2.75.256-.462 5.916-.147 6.615-1.224.345-.679-4.237-2.273-4.32-3.306 0-.211 1.136-1.589 2.445-2.79l-.005.006c10.04 10.58 27.832 21.516 32.408 24.537 1.95 2.18 7.428 4.422 7.595 7.905.242 5.072-4.542 6.744-5.896 8.166 1.629-2.11 1.235-10.778-1.078-10.827-.276-.03-.561.86-.492 2.124.108 2.027.699 4.753.836 6.548.09 1.152-.432 2.19-1.417 2.795-1.5.929-4.252 1.726-8.155-.217a.13.13 0 0 1-.074-.123c0-.054.035-.098.084-.118 2.78-1.097 4.641-3.98 5.094-4.875.482-.87.236-5.318-.92-5.559-.458-.098-1.374 1.004-2.078 2.69-1.078 2.588-2.052 6.303-3.243 7.237-1.968 1.545-6.895-.344-9.065-1.889 2.8-3.256 5.6-4.707 6.378-5.652.777-.944 3.499-4.407 3.09-4.791-.408-.384-4.104 3.335-4.847 4.068-.744.737-4.287 5.028-7.137 5.283-1.117.074-6.196-3.005-6.93-5.553 2.693.078 4.558-2.691 7.29-1.358 1.274-.551 7.299-4.457 7.043-5.318-.064-.384-7.52 3.749-9.73 4.211-.837.133-1.408-.07-1.86.059-.453.123-3.18 1.476-4.376.472-1.196-.998-3.209-4.275-3.297-5.288 2.579.423 14.785-1.697 15.664-3.444.498-1.047-1.914-.496-3.026.015-1.112.512-9.789 3.926-13.967 2.307-1.2-.727-3.406-5.676-3.662-6.606 3.588 2.253 18.726.89 17.191-1.785-.27-.463-10.93 3.782-16.615.88-.714-.477-1.176-4.344-1.117-5.2 3.184.384 12.86 2.878 13.205.32l-.025-.103z"/>
                <path fill="#BBDAE9" d="M340.92 336.832c-1.925-1.762-4.688-4.8-7.703-8.686a115.814 115.814 0 0 1-7.573-11.034c-2.047-3.388-3.99-7.008-5.643-10.727-1.465-3.304-2.699-6.692-3.583-10.067-1.26-4.833-2.06-9.66-2.622-14.356-.561-4.71-.884-9.264-1.194-13.572-.4-5.623-.769-10.825-1.595-15.302-.82-4.443-2.085-8.18-4.28-10.915l-.207-.259 1.143-.927.213.26c2.35 2.928 3.699 6.84 4.558 11.46.853 4.58 1.228 9.866 1.634 15.573.606 8.577 1.284 18.14 3.764 27.661.858 3.292 2.066 6.609 3.506 9.853 1.62 3.655 3.53 7.218 5.545 10.555a115.689 115.689 0 0 0 7.464 10.876c2.957 3.822 5.662 6.796 7.547 8.52l.245.226-.994 1.094-.226-.233h.001zm1.537.96c2.246-1.355.593-7.47-.278-13.734-.762-5.52-.318-11.033-2.732-11.403-.716-.09-2.686 2.52-3.958 1.762-1.271-.757-1.898-3.945-.78-7.818 1.116-3.875 4.984-7.606 2.382-10.463-2.602-2.857-5.985 1.898-7.36.972-2.034-1.36-1.447-4.904-.194-8.493 1.046-3 5.636-8.687 3.712-12.522-1.923-3.835-10.413 7.812-13.331 3.543-.873-1.146.51-4.47 3.06-6.757 3.24-2.908 7.857-5.908 8.98-7.974 1.123-2.073 2.144-6.271-1.834-7.955-3.454-1.464-7.044 8.725-10.046 5.338-3.002-3.388 4.275-9.335 2.195-17.258-3.37-12.814-12.867-18.061-19.31-16.941-9.685 1.678-6.14 13.1-2.66 18.787 3.66 5.986 8.877 10.481 5.791 13.462-3.086 2.974-7.877-8.286-10.75-7.016-2.873 1.27-4.106 6.556 1.704 11.512 2.415 2.06 9.194 7.164 5.269 10.183-2.59 1.794-4.52-3.297-7.6-5.196-3.078-1.891-5.119.092-5.784 1.219-.658 1.12-1.085 3.744 5.585 8.473 6.662 4.729 17.019 13.32 12.81 17.575-1.886 1.905-8.4-4.612-10.292-2.228-2.182 2.76 2.46 6.977 5.959 8.674 3.003 1.458 10.343 2.598 10.22 5.351-.504 2.248-4.028.635-4.971 1.49-.982.894-.258 3.582 2.305 5.241 5.146 3.323 14.23 3.323 14.41 8.675-.277 1.716-2.42.557-2.827 2.189-.407 1.633 17.127 12.886 20.324 11.311z"/>
                <path fill="#679FC6" d="M338.573 349.31c5.376-3.187 1.92-13.063 1.907-17.147-.013-2.327 1.25-3.916 1.061-5.558-.215-1.87-3.313-4.521-5.213-3.518-2.259 1.192-1.654 5.348-4.739 5.948-3.111.528-5.122-5.433-6.08-9.909-.956-4.475 1.017-10.717-.753-15.414-1.771-4.697-4.258-6.365-6.087-5.935-2.597.619-3.82 4.118-3.671 7.277.157 3.316 2.643 9.35-3.032 10.665-1.81.417-4.68-1.922-5.891-6.02-1.21-4.097 1.796-8.502.078-14.17-2.662-8.788-10.134-7.081-11.683.645-.358 1.772-.033 4.066-.078 6.28-.098 4.574-3.95 6.567-5.611 6.34-2.538-.353-3.905-.73-5.265-4.775-1.36-4.047-2.292-9.727-3.86-13.67-1.569-3.94-6.92-9.713-12.458-8.143-3.157.893-9.984 8.854-1.562 24.034 5.767 9.902 14.703 4.984 16.786 8.626 2.083 3.642-4.64 6.782-2.792 9.81 1.842 3.03 5.923 3.688 9.913 2.093 3.99-1.59 11.592-8.105 14.494-4.535.769.925.476 1.94-.201 2.775-1.146 1.408-3.222 2.26-2.994 3.987.234 1.804 2.877 5.414 6.45 4.424 3.931-1.088 5.63-5.167 10.486-4.28 1.672.306 3.254 1.51 3.384 3.172.033 2.313-2.545 2.052-3.326 3.369-.527.892.176 3.882 1.654 4.807 1.477.926 5.616.079 7.413 1.532 1.744 1.413 6.697 8.795 10.433 7.836-1.809-3.882-3.768-7.348-5.857-10.417-2.096-3.08-4.329-5.778-6.665-8.117-2.337-2.332-4.784-4.32-7.336-5.98a43.442 43.442 0 0 0-7.915-4.085 81.362 81.362 0 0 0-5.974-2.059c-2.005-.619-3.983-1.166-5.93-1.714-12.243-3.413-23.243-6.482-28.098-21.505l-.105-.32 1.283-.416.104.32c2.317 7.165 6.125 11.485 10.83 14.423 4.726 2.951 10.388 4.528 16.344 6.195 3.925 1.095 7.98 2.228 12.028 3.818a44.677 44.677 0 0 1 8.162 4.209 47.055 47.055 0 0 1 7.55 6.163c2.395 2.397 4.68 5.153 6.822 8.306 2.14 3.134 4.146 6.671 5.994 10.632"/>
                <path fill="#FFF" d="M64.624 137.082c-3.952.305-6.437-1.17-9.518-1.185-2.348-.015-15.178 5.017-24.052 4.407-8.873-.615-10.547-3.665-11.496-3.792-1.3-.055-3.712 2.135-11.271 1.49-4.07-.35-7.53-2.248-7.427-4.334.448-5.745 11.162-3.29 14.116-3.512.417-2.76 2.145-5.185 12.052-4.742-1.058-1.117-.556-8.033 10.769-8.255 12.835.724 17.6 9.76 19.085 10.93.832.655 6.335-.732 10.523.158 7.422 1.575 5.61 8.186-2.781 8.835M360.088 101.316c-4.4.34-7.17-1.298-10.596-1.323-2.614-.015-16.901 5.588-26.778 4.904-9.878-.684-11.743-4.083-12.796-4.22-1.442-.06-4.13 2.376-12.546 1.657-4.533-.383-8.381-2.498-8.268-4.825.497-6.395 12.427-3.665 15.72-3.91.467-3.075 2.391-5.776 13.421-5.279-1.181-1.24-.62-8.943 11.989-9.19 14.287.808 19.593 10.867 21.246 12.171.926.728 7.048-.817 11.713.177 8.254 1.76 6.24 9.12-3.105 9.838"/>
                <ellipse cx="120.473" cy="3.188" fill="#000" opacity=".1" rx="120.392" ry="2.961" transform="translate(306.615 337.652)"/>
                <g>
                    <path fill="#13416D" d="M295.304 292.527h62.702v40.77h-62.701z"/>
                    <path fill="#4884B6" d="M596.552 301.642V284.45c0-7.232-5.488-13.285-12.695-14.022l-20.478-2.081-12.341-8.806a113.982 113.982 0 0 0-66.235-21.208H436.19a139.22 139.22 0 0 0-65.254 16.234l-35.113 18.635-55.952 15.382c-6.794 1.867-11.501 8.03-11.5 15.059v3.2l-3.327 9.983v5.57c0 7.26 5.945 13.123 13.22 13.042l15.328-.162a3.278 3.278 0 0 0 3.246-3.274v-5.37c0-15.824 12.864-28.653 28.731-28.653s28.733 12.83 28.733 28.653v4.819c0 1.75 1.43 3.163 3.186 3.14l136.115-1.441a2.104 2.104 0 0 0 2.08-2.096v-4.429c0-15.824 12.865-28.653 28.732-28.653 15.867 0 28.732 12.829 28.732 28.653v2.42c0 .886.376 1.73 1.036 2.324.66.593 1.54.88 2.424.789l31.52-3.245c7.185-.736 12.644-6.775 12.644-13.978v-13.293h-4.22z"/>
                    <path fill="#AAD9EF" d="M386.7 260.983l14.105-7.173 11.648-4.62 11.648-3.082 8.808-1.662 21.894-.2h29.83l19.335 2.767 3.172 2.214 2.773 3.914.391 7.842-.272 3.854-1.431 2.053-2.612 1.185-57.885 1.265-60.15 1.015-.582-3.796z"/>
                    <path fill="#5BABC1" d="M440.233 253.67l-.095 1.957c-.163 3.282 2.397 6.098 5.687 6.253 3.29.162 6.115-2.39 6.27-5.671l.096-1.957c.163-3.281-2.397-6.099-5.688-6.253-3.282-.162-6.107 2.39-6.269 5.672zm7.871 15.67l2.28-.052a5.988 5.988 0 0 0-4.596-6.613c-3.209-.736-6.44 1.28-7.177 4.487l-.539 2.347 10.032-.17zm-38.41.647l-3.076-8.54a1.65 1.65 0 0 0-2.102-.987 1.643 1.643 0 0 0-.989 2.097l1.372 3.803c-1.534.426-4.831 1.545-7.501 3.84l12.296-.213zm-10.062-6.694c-4.181.261-8.36.576-12.533.942l.28 2.324.583 3.796 7.613-.125c1.254-2.678 2.855-5.738 4.057-6.937z"/>
                    <path fill="#679FC6" d="M596.752 305.24h-5.695v-4.187l-.051-.006v-19.04c0-2.287-1.336-4.362-3.409-5.347-2.56-1.23-5.887-3.355-7.465-6.607l-16.76-1.706-205.366 4.848-68.404 17.294-11.337 9.358v22.702c0 7.092 5.804 12.815 12.909 12.742l2.419-.022a3.278 3.278 0 0 0 3.246-3.274v-5.37c0-15.824 12.864-28.653 28.731-28.653s28.733 12.829 28.733 28.653v4.819c0 1.75 1.43 3.163 3.186 3.14l136.115-1.442a2.104 2.104 0 0 0 2.08-2.096v-4.428c0-15.825 12.865-28.654 28.732-28.654 15.867 0 28.732 12.83 28.732 28.654v2.42c0 .886.376 1.73 1.036 2.324.66.593 1.54.88 2.424.788l31.52-3.244c.037 0 .066-.008.103-.008 4.869-.537 8.52-4.723 8.52-9.607V305.24z"/>
                    <path fill="#4884B6" d="M556.614 332.157v-9.364c0-17.502-14.427-31.576-31.97-31.192l-202.548 4.45c-15.948.353-28.695 13.345-28.695 29.25v9.96h.185a3.278 3.278 0 0 0 3.246-3.273v-5.37c0-15.825 12.864-28.654 28.731-28.654 15.868 0 28.732 12.83 28.732 28.654v4.818a3.143 3.143 0 0 0 3.187 3.141l136.114-1.441a2.103 2.103 0 0 0 2.08-2.097v-4.428c0-15.825 12.865-28.654 28.732-28.654 15.867 0 28.733 12.829 28.733 28.654v2.42c.022 1.868 1.63 3.31 3.473 3.126z"/>
                    <path fill="#27688D" d="M354.31 329.442v2a3.142 3.142 0 0 0 3.187 3.142l136.114-1.442a2.104 2.104 0 0 0 2.08-2.096v-4.303l-141.38 2.699zm19.85-3.501c-7.48 0-13.919-5.495-15.04-12.903l-2.796-18.429a26.663 26.663 0 0 1 12.253-26.645l.169.265-.169-.265c5.473-3.414 12.378-7.504 20.521-12.138a110 110 0 0 1 35.837-12.845l.885-.154a60.18 60.18 0 0 1 10.216-.876h48.37l19.37 2.627c5.732.78 10.062 5.715 10.062 11.483v16.737c0 9.526-3.231 18.92-9.088 26.453l-10.372 13.317c-5.563 7.143-13.957 11.343-23.024 11.513l-96.899 1.852c-.103.009-.2.009-.295.009v-.001zm61.869-83.35c-3.378 0-6.78.295-10.114.868l-.885.155a109.42 109.42 0 0 0-35.63 12.77c-8.135 4.636-15.026 8.711-20.499 12.125a26.03 26.03 0 0 0-11.958 26.02l2.796 18.427c1.077 7.092 7.252 12.367 14.414 12.367h.28l96.9-1.854c8.874-.169 17.092-4.274 22.536-11.27l10.365-13.315c5.776-7.416 8.955-16.678 8.955-26.064v-16.737c0-5.458-4.087-10.122-9.509-10.857l-19.355-2.62h-48.296v-.015z"/>
                    <g fill="#679FC6">
                        <path d="M351.131 301.767h-3.843a2.068 2.068 0 0 1-2.066-2.06c0-1.133.929-2.06 2.066-2.06h3.843a2.07 2.07 0 0 1 2.066 2.06c0 1.126-.93 2.06-2.066 2.06z"/>
                        <path d="M351.131 302.238h-3.843a2.547 2.547 0 0 1-2.545-2.538 2.546 2.546 0 0 1 2.545-2.538h3.843a2.546 2.546 0 0 1 2.545 2.538 2.546 2.546 0 0 1-2.545 2.538zm-3.843-4.127c-.878 0-1.594.714-1.594 1.589s.715 1.59 1.594 1.59h3.843c.878 0 1.593-.714 1.593-1.59 0-.875-.715-1.589-1.593-1.589h-3.843z"/>
                    </g>
                    <path fill="#FCB959" d="M351.131 301.767h-3.843a2.068 2.068 0 0 1-2.066-2.06c0-1.133.929-2.06 2.066-2.06h3.843a2.07 2.07 0 0 1 2.066 2.06c0 1.126-.93 2.06-2.066 2.06z"/>
                    <path fill="#FED195" d="M349.39 300.237h-2.235a1.201 1.201 0 0 1-1.203-1.2c0-.662.539-1.199 1.203-1.199h2.235c.664 0 1.202.537 1.202 1.2 0 .654-.546 1.2-1.202 1.2z"/>
                    <path fill="#90BFD9" d="M284.593 306.828h-17.512a4.995 4.995 0 0 0-5.001 4.988 4.995 4.995 0 0 0 5.001 4.988h17.512a5.007 5.007 0 0 0 3.537-1.461 4.98 4.98 0 0 0 1.465-3.527c.007-2.751-2.235-4.988-5.002-4.988z"/>
                    <path fill="#B8DCEC" d="M281.982 307.587h-15.896a1.384 1.384 0 1 0 0 2.765h15.896a1.383 1.383 0 1 0 0-2.765z"/>
                    <path fill="#AAD9EF" d="M417.063 242.275h-13.772a139.25 139.25 0 0 0-32.361 12.292l-35.113 18.635h22.189s33.247-24.748 59.124-30.301c.369-.09.31-.626-.067-.626z"/>
                    <path fill="#5BABC1" d="M403.984 246.983l.429-3.436a.343.343 0 0 0-.288-.374.338.338 0 0 0-.377.287l-.183 1.449c-.038-.015-.082-.022-.12-.03a.599.599 0 0 0-.16 0v-2.604c-.193.044-.385.096-.584.148v2.898a.696.696 0 0 0 .694.957l-.126.985c.244-.096.48-.192.715-.28zm-45.977 26.212s3.967-2.95 10.23-7.049c-8.462.972-16.91 2.07-25.339 3.298l-7.074 3.75h22.182z"/>
                    <path fill="#FFF" d="M346.668 273.195l51.209-29.486a139.219 139.219 0 0 0-26.947 10.858l-35.113 18.635h10.851v-.007z" opacity=".5"/>
                    <path fill="#4884B6" d="M358.007 273.512h-22.19a.315.315 0 0 1-.317-.317c0-.176.14-.317.317-.317h22.078c1.896-1.398 34.154-24.924 59.16-30.294l-13.77.007a.315.315 0 0 1-.319-.316c0-.176.14-.316.318-.316h13.772c.332 0 .59.235.627.567a.612.612 0 0 1-.494.676c-25.509 5.481-58.667 30-58.998 30.25a.324.324 0 0 1-.185.059z"/>
                    <path fill="url(#e)" d="M239.813 8.079l-16.877-2.214a19.829 19.829 0 0 0-2.553-.17h-44.002c-3.194 0-6.38.265-9.522.788l-.827.139a105.046 105.046 0 0 0-33.482 11.631c-6.22 3.427-13.249 7.4-19.216 11.013-.023.014-.037.021-.06.037-1.962 1.191-1.07 4.207 1.203 4.207h.059l128.847-2.943c3.117-.073 5.606-2.613 5.607-5.723v-6.62c-.007-5.12-3.925-9.454-9.176-10.145zM126.655 22.983a889.843 889.843 0 0 1 6.5-3.627 103.721 103.721 0 0 1 33.077-11.49l.826-.14a56.462 56.462 0 0 1 9.316-.773h10.622l-7.988 23.806-49.697 1.133-2.656-8.909zm121.06 1.862c0 2.397-1.963 4.399-4.368 4.457l-53.097 1.214 7.295-23.547h22.75c.855 0 1.711.06 2.552.17l16.796 2.205c4.596.604 8.062 4.422 8.062 8.887v6.613h.008l.001.001z" transform="translate(262 238)"/>
                    <path fill="#2D6E9A" d="M441.259 324.396c-.03-.176-2.826-17.987 0-33.958 2.825-15.94 12.747-47.935 12.843-48.259l.604.184c-.102.325-10.01 32.28-12.827 48.178-2.811 15.868-.03 33.568 0 33.745l-.62.11z"/>
                    <path fill="url(#f)" d="M191.636 5.695c-1.209 3.943-4.543 15-7.546 26.22l.657-.016c3.039-11.328 6.403-22.459 7.553-26.204h-.664z" transform="translate(262 238)"/>
                    <g transform="translate(300.468 300.737)">
                        <path fill="#215D8D" d="M25.103.31C11.485.31.45 11.313.45 24.893S11.485 49.48 25.103 49.48c13.617 0 24.653-11.005 24.653-24.586C49.756 11.314 38.72.31 25.103.31zm0 41.512c-9.376 0-16.974-7.577-16.974-16.928 0-9.35 7.598-16.927 16.974-16.927 9.376 0 16.974 7.577 16.974 16.927 0 9.343-7.598 16.928-16.974 16.928z"/>
                        <path fill="#13416D" d="M25.103 1.817c-12.776 0-23.133 10.328-23.133 23.07 0 12.741 10.356 23.07 23.133 23.07 12.776 0 23.133-10.329 23.133-23.07.007-12.741-10.356-23.07-23.133-23.07zm0 40.004c-9.376 0-16.974-7.576-16.974-16.927 0-9.35 7.598-16.927 16.974-16.927 9.376 0 16.974 7.577 16.974 16.927 0 9.343-7.598 16.928-16.974 16.928z"/>
                        <circle cx="25.098" cy="24.896" r="13.4" fill="#898989" transform="rotate(-45 25.098 24.896)"/>
                        <path fill="#4884B6" d="M32.155 22.32a10.222 10.222 0 0 0-4.588-4.694 1.689 1.689 0 0 1-.842-2.038l1.646-4.84c.317-.942 1.387-1.399 2.302-.986a18.662 18.662 0 0 1 9.449 9.66 1.677 1.677 0 0 1-1.048 2.265l-4.89 1.515a1.688 1.688 0 0 1-2.03-.883z"/>
                        <path fill="#CCC" d="M25.103 6.753c-10.048 0-18.184 8.122-18.184 18.135 0 10.02 8.144 18.134 18.184 18.134 10.047 0 18.183-8.122 18.183-18.134.008-10.013-8.136-18.134-18.183-18.134zm0 35.069c-9.376 0-16.974-7.577-16.974-16.928 0-9.35 7.598-16.927 16.974-16.927 9.376 0 16.974 7.577 16.974 16.927 0 9.343-7.598 16.928-16.974 16.928z"/>
                        <path fill="url(#g)" d="M35.437 32.516l3.83 1.706a16.8 16.8 0 0 0 2.788-8.548l-4.102-.875c-3.371-.713-4.7-4.804-2.39-7.357l2.81-3.104a16.98 16.98 0 0 0-7.288-5.289l-2.102 3.626c-1.726 2.98-6.034 2.98-7.753 0l-2.102-3.627a16.98 16.98 0 0 0-7.288 5.29l2.81 3.104c2.31 2.553.981 6.643-2.39 7.357l-4.102.875a16.809 16.809 0 0 0 2.79 8.55l3.828-1.708c3.15-1.398 6.631 1.118 6.277 4.539l-.435 4.163c2.935.805 6.034.805 8.97 0l-.436-4.163c-.353-3.42 3.136-5.944 6.285-4.539z"/>
                        <ellipse cx="25.12" cy="25.43" fill="#9F9F9F" rx="8.34" ry="8.324" transform="rotate(-22.5 25.12 25.43)"/>
                        <ellipse cx="25.103" cy="25.431" fill="url(#h)" rx="7.627" ry="7.606"/>
                        <path fill="#FFF" d="M18.28 27.403a.574.574 0 0 1-.561-.456 7.508 7.508 0 0 1 1.543-6.264 7.551 7.551 0 0 1 5.84-2.77c1.698 0 3.305.551 4.64 1.596.252.192.296.552.097.795a.56.56 0 0 1-.797.095 6.356 6.356 0 0 0-3.938-1.353c-3.527 0-6.404 2.862-6.404 6.385 0 .435.044.868.133 1.288a.558.558 0 0 1-.443.67c-.038.007-.074.014-.11.014z"/>
                        <ellipse cx="25.103" cy="25.431" fill="#9F9F9F" rx="6.174" ry="6.158"/>
                        <path fill="#7D7D7D" d="M22.388 30.125l-.605-1.053.605-1.043h1.217l.605 1.043-.604 1.053h-1.218zm-2.11-3.641l-.605-1.053.606-1.044h1.216l.605 1.044-.604 1.053H20.28zm2.11-3.642l-.605-1.052.605-1.052h1.217l.605 1.052-.604 1.052h-1.218zm4.22 0l-.613-1.052.613-1.052h1.21l.604 1.052-.604 1.052h-1.21zm1.992 3.642l-.606-1.053.606-1.044h1.216l.606 1.044-.606 1.053H28.6zm-1.993 3.64l-.612-1.052.613-1.043h1.21l.604 1.043-.604 1.053h-1.21z"/>
                    </g>
                    <path fill="#232323" d="M270.32 296.397a.322.322 0 0 1-.273-.155.32.32 0 0 1 .11-.433 44.568 44.568 0 0 1 21.393-6.113c.162-.015.316.132.325.308a.314.314 0 0 1-.31.324 44.045 44.045 0 0 0-21.09 6.024.274.274 0 0 1-.155.045z"/>
                    <path fill="#4884B6" d="M291.565 290.328a.323.323 0 0 1-.31-.236.313.313 0 0 1 .228-.382l66.442-16.817a.316.316 0 1 1 .155.61l-66.442 16.818c-.022 0-.051.007-.074.007z"/>
                    <path fill="#3A79A5" d="M426.726 285.863h6.758a2.565 2.565 0 0 0 2.567-2.56 2.565 2.565 0 0 0-2.567-2.56h-6.757a2.565 2.565 0 0 0-2.567 2.56 2.565 2.565 0 0 0 2.567 2.56z"/>
                    <path fill="#90BFD9" d="M433.484 280.75h-6.757a2.565 2.565 0 0 0-2.567 2.56h11.884a2.547 2.547 0 0 0-.747-1.81 2.561 2.561 0 0 0-1.813-.75z"/>
                    <path fill="#A8D4E7" d="M431.728 282.258h-5.68a.514.514 0 1 1 0-1.03h5.68c.288 0 .517.228.517.515 0 .287-.23.515-.517.515z"/>
                    <path fill="#232323" d="M331.236 274.997l-.856.125a.267.267 0 0 1-.302-.228l-.023-.176a.41.41 0 0 1 .214-.42l.488-.25a.598.598 0 0 1 .863.442.446.446 0 0 1-.384.507z"/>
                    <path fill="#679FC6" d="M267.08 316.811h17.513a5.007 5.007 0 0 0 3.537-1.46 4.98 4.98 0 0 0 1.465-3.528h-27.523a5.005 5.005 0 0 0 5.01 4.988h-.002z"/>
                    <path fill="#B9E4EE" d="M297.584 289.997h-4.898a44.148 44.148 0 0 0-22.366 6.084 15.53 15.53 0 0 0-1.955 7.554v.53h18.309a20.302 20.302 0 0 0 14.332-5.921c3.054-3.047.893-8.247-3.422-8.247z"/>
                    <path fill="#9FD1DD" d="M282.196 296.684a8.171 8.171 0 0 0 4.861 7.466 20.272 20.272 0 0 0 10.173-2.95 8.163 8.163 0 0 0-2.118-11.204h-.228c-3.615 0-7.192.45-10.667 1.318a8.132 8.132 0 0 0-2.021 5.37zm-.428 2.31a5.95 5.95 0 0 0-5.289-5.907 45.06 45.06 0 0 0-5.156 2.427 17.387 17.387 0 0 0-1.461 3.781 5.922 5.922 0 0 0 3.01 4.863h5.878a5.926 5.926 0 0 0 3.019-5.164h-.001z"/>
                    <path fill="#E9F6F9" d="M296.403 296.684a8.163 8.163 0 0 0-3.482-6.687h-.228c-3.615 0-7.192.449-10.667 1.317a8.11 8.11 0 0 0-2.02 5.37 8.18 8.18 0 0 0 4.883 7.481h1.792c2.309 0 4.573-.397 6.713-1.14 1.83-1.508 3.01-3.788 3.01-6.341zm-16.834 2.825c0-2.957-2.404-5.355-5.37-5.355-.08 0-.161.007-.243.014a44.056 44.056 0 0 0-3.644 1.913 15.499 15.499 0 0 0-1.467 3.7 5.34 5.34 0 0 0 2.706 4.377h5.297a5.319 5.319 0 0 0 2.721-4.65v.001z"/>
                    <path fill="#FFF" d="M271.05 298.457a.79.79 0 1 1-.406-1.47 45.077 45.077 0 0 1 21.622-6.18.796.796 0 0 1 .81.772.784.784 0 0 1-.774.808 43.462 43.462 0 0 0-20.861 5.967.816.816 0 0 1-.391.103z"/>
                    <path fill="url(#i)" d="M120.533 27.434l6.69-1.457 1.461 5.054-7.237 1.177a2.44 2.44 0 0 1-2.737-1.729 2.423 2.423 0 0 1 .25-1.916 2.435 2.435 0 0 1 1.573-1.129z" transform="translate(262 238)"/>
                    <path fill="#5292B6" d="M396.94 259.034l-2.774-.008-.037.508-1.85.456a5.234 5.234 0 0 0-4 5.075c.002 2.889 2.35 5.23 5.246 5.23h3.297c2.896 0 5.243-2.341 5.244-5.23v-.808c0-2.92-2.36-5.165-5.126-5.224z"/>
                    <path fill="#679FC6" d="M394.189 270.288h-3.297c-2.897 0-5.245-2.341-5.246-5.23a5.235 5.235 0 0 1 3.998-5.076l3.297-.81c3.306-.808 6.492 1.686 6.492 5.076v.81a5.22 5.22 0 0 1-1.535 3.7 5.25 5.25 0 0 1-3.71 1.53z"/>
                    <path fill="#FFF" d="M386.849 264.727a.671.671 0 0 1-.17-.022.578.578 0 0 1-.384-.713 5.357 5.357 0 0 1 3.828-3.605l3.018-.588a.57.57 0 0 1 .671.456.565.565 0 0 1-.457.67l-2.995.58c-1.394.339-2.545 1.427-2.973 2.818a.551.551 0 0 1-.538.404z"/>
                </g>
            </g>
        </g>
        <g mask="url(#c)">
            <path fill="#FFCB82" d="M361.604 268.692l-4.907-19.723-9.813-3.586 7.414 24.205 2.798 19.723-1.005 5.056-.127 5.522c1.367 0 1.81-1.793 1.901-2.958.09-1.166 1.005-.852 1.005-.852s.788 6.034.996 7.37c.02.337.2.646.484.833.285.187.642.23.964.117l1.81-2.466.906-5.244-2.254-7.925-.172-20.072z"/>
            <path fill="#000" d="M361.604 268.692l-4.907-19.723-7.152 5.38c.227.582 5.867.304 5.867.304 1.222 4.67 2.607 10.005 3.223 12.058 1.81 5.961.543 19.247 1.158 21.255a40.64 40.64 0 0 1 1.503 6.544c.453 3.273.851 6.787-.136 9.862h.136l1.81-2.466.906-5.244-2.254-7.925-.154-20.045zM319.607 255.011l.942.368.842-5.737-.788 1.667z" opacity=".1"/>
            <path fill="#92C1DB" d="M358.725 252.483l-3.114-10.847a1.415 1.415 0 0 0-.073-.224v-.117a7.726 7.726 0 0 0-5.431-4.688l-14.693-5.46v-.098-.045h-.1l-.181.071-.19-.071h-.09V231.147l-14.694 5.46c-1.652.389-1.242 6.99 1.232 19.803l-1.739 38.047c9.959-.117 20.18 0 30.192 0l-.317-21.857-.624-16.827 5.431 13.788 2.1 19.346h5.976l-.77-20.215-2.915-16.209z"/>
            <path fill="#FFF" d="M335.323 231.049v-.045h-.1l-.18.071-.19-.071h-.091V231.147l-8.148 3.04c4.083 5.737 4.78 14.397 5.432 21.515.842.941.652 1.999.697 3.254.371 9.861 0 25.469.326 35.536h.905c-.724-8.776.227-24.742.299-33.17.003-.898.058-1.796.163-2.689a3.02 3.02 0 0 1 .842-3.586c.348-.958.759-1.892 1.231-2.797 3.141-6.132 5.64-11.295 6.817-18.162l-7.921-2.94s-.073-.064-.082-.1z"/>
            <path fill="#FFCB82" d="M330.516 234.975c.11 2.434 2.134 4.352 4.594 4.352 2.461 0 4.486-1.918 4.595-4.352V224.8h-9.189v10.175z"/>
            <path fill="#000" d="M330.516 230.107v.897a5.678 5.678 0 0 0 6.78-1.354s-3.747 2.187-6.78.457z" opacity=".1"/>
            <path fill="#FFCB82" d="M326.47 223.402a7.591 7.591 0 0 0 2.256 5.403 7.743 7.743 0 0 0 5.456 2.235c4.255 0 8.746-4.949 8.746-9.171l.081-7.683h-16.54v9.216z"/>
            <path fill="#12406D" d="M336.364 208.224h-11.769c0 5.854 1.91 5.953 1.91 5.953h10.04a2.34 2.34 0 0 1 1.766.671c.466.462.713 1.097.679 1.75v2.366h1.23s.49-.968 1.15-.968c.48 0 1.105 0 1.105 1.578 0 4.222-2.091 3.944-2.091 3.944l-.67 5.002c3.693-1.91 3.947-8.453 3.947-8.453v-5.97c0-6.841-7.297-5.873-7.297-5.873z"/>
            <path fill="#000" d="M330.136 217.108l-.824 5.576s1.313 1.793 2.716-.215h-2.055l.163-5.36z" opacity=".1"/>
            <path fill="#BAD9E9" d="M333.675 256.795h1v37.724h-1zM356.48 286.397l5.727-.224c.3-.012.552.221.563.52l.073 1.8a.543.543 0 0 1-.52.564l-5.727.224a.543.543 0 0 1-.564-.52l-.073-1.8a.543.543 0 0 1 .521-.564zM339.705 231.55a18.95 18.95 0 0 1-1.367 6.877l-4.663 18.368h.716l10.98-14.397-2.833-3.487 2.834-4.043-5.667-3.317zM332.372 256.795h1v37.661h-1zM330.516 231.55l-5.957 3.318 2.834 4.043-2.834 3.487 7.813 14.397h.715l-1.738-17.759c-.62-2.446-.9-4.964-.833-7.485z"/>
            <path fill="#52504F" d="M334.39 291.633h15.408v2.824H334.39zM319.607 291.633h12.774v2.824h-12.774z"/>
            <path fill="#286B9E" d="M319.761 291.713l-.398 13.349 4.816 73.27 6.337.627 3.214-74.587 1.475-.063 8.546 74.022 6.338.628.081-75.35-.561-12.003c-.082.045-29.694.224-29.848.107z"/>
            <path fill="#000" d="M319.761 291.713l-.027.547 27.847.69 1.693 85.193.905.018.027-73.27-.561-13.258z" opacity=".1"/>
            <path fill="#000" d="M329.303 378.161h1.276l3.15-73.762-.416-.01z" opacity=".1"/>
            <path fill="#12406D" d="M344.095 378.161l-4.526 2.95c-3.748.385-4.01 3.343-4.01 3.343h15.598a11.553 11.553 0 0 0-.978-6.275l-6.084-.018z"/>
            <path fill="#000" d="M349.3 378.161c.212.576.328 1.18.345 1.793a11.89 11.89 0 0 1-.244 3.918c-.064.206-.154.403-.236.6h1.992a11.553 11.553 0 0 0-.978-6.275l-.878-.036z" opacity=".1"/>
            <path fill="#12406D" d="M323.826 378.161l-7.034 2.95c-3.757.385-4.02 3.343-4.02 3.343h18.776a11.597 11.597 0 0 0-.969-6.275l-6.753-.018z"/>
            <path fill="#000" d="M329.303 378.161c.153.501.24 1.02.262 1.542a6.317 6.317 0 0 1-1.602 4.751h3.621a11.597 11.597 0 0 0-.968-6.275l-1.313-.018z" opacity=".1"/>
            <path fill="#BAD9E9" d="M319.725 289.58v1.578c0 .139.056.273.157.37.1.098.236.152.377.15h12.484v-2.618h-12.484a.528.528 0 0 0-.377.149.517.517 0 0 0-.157.37zM350.043 289.05h-15.29v2.619h15.29c.14 0 .273-.055.372-.153a.517.517 0 0 0 .153-.367v-1.57a.517.517 0 0 0-.15-.373.528.528 0 0 0-.375-.155z"/>
            <path fill="#FEB650" d="M285.043 252.537c.217-.896.634-1.65.905-2.501l.127.063h1.693l1.168 6.956-5.27-3.684c.218-.69 1.196-.09 1.377-.834z"/>
            <path fill="#FEB650" d="M290.782 250.34l5.043 2.843 2.825 1.793-2.544 4.42-2.499-1.462c-1.358.224-4.01-.663-4.01-.663l-3.169-2.188 1.693-6.123 2.661 1.38z"/>
            <path fill="#FFCB82" d="M287.641 247.849l.598.25.262 1.283c0 .69-.742.735-.742.735l-1.331-1.139c.03-.311.116-.615.253-.896.2-.314.96-.233.96-.233z"/>
            <path fill="#FFF" d="M288.113 260.211c.387.01.69.201.681.43l-.318 5.02c-.051.207-.351.36-.704.36s-.653-.153-.705-.36l.334-5.01c-.013-.116.057-.23.192-.313a.987.987 0 0 1 .52-.127z"/>
            <path fill="#BAD9E9" d="M287.846 264.55v-.664l-.235-.322v-.646l.326-.376a.09.09 0 0 1 .145 0 .098.098 0 0 1 0 .143l-.28.323v.502l.234.322v.78l-.298.556.126.368v.367h-.217v-.331l-.145-.422.344-.6z"/>
            <path fill="#12406D" fill-rule="nonzero" d="M288.048 255.424h.363a1.674 1.674 0 0 1 1.602 1.712l-.118 2.94a1.244 1.244 0 0 1-1.294 1.184h-1.195a1.255 1.255 0 0 1-.87-.394 1.23 1.23 0 0 1-.334-.888l.117-2.932c.01-.443.198-.864.523-1.168.325-.305.76-.469 1.206-.454zm.118 1.596c.643 0 1.177 0 1.186-.323.01-.323-.498-.655-1.15-.673-.651-.017-1.186.234-1.195.583-.009.35.507.386 1.16.413z"/>
            <path fill="#205C8C" d="M288.103 258.74c.643 0 1.159.333 1.15.682-.01.35-.544.34-1.195.314-.652-.027-1.168-.054-1.16-.404.01-.35.553-.61 1.205-.591z"/>
            <path fill="#333" fill-rule="nonzero" d="M287.717 256.41c1.02 0 1.291-2.618 1.291-3.998 0-1.38-.271-3.999-1.291-3.999s-1.291 2.618-1.291 3.999c0 1.38.284 3.998 1.29 3.998zm0-7.728c.31 0 .904 1.318.904 3.73 0 2.411-.594 3.729-.904 3.729-.31 0-.891-1.318-.891-3.73 0-2.41.594-3.756.89-3.756v.027z"/>
            <path fill="#FFCB82" d="M293.046 249.113l4.227 5.002s-2.2 1.058-3.675.368c-2.263-1.058-2.816-4.142-2.816-4.142s-.199.143-1.81-.43a1.166 1.166 0 0 1-.874-.692 1.147 1.147 0 0 1 .113-1.101l4.835.995z"/>
            <path fill="#92C1DB" d="M309.857 259.1l4.87-17.93s2.58-3.99 6.383-4.967l.69-.21c-.097.388-.19.752-.22 1.152-.515 7.001.019 19.328 0 19.65-.01.184-1.928 3.208-5.755 9.074a4.309 4.309 0 0 1-5.627 1.452l-14.762-7.827 2.716-5.415 11.705 5.02z"/>
            <path fill="#BAD9E9" d="M297.122 253.91l-2.352 5.165a.543.543 0 0 0 .273.721l1.666.744c.272.121.592 0 .716-.27l2.352-5.167a.543.543 0 0 0-.273-.72l-1.666-.744a.543.543 0 0 0-.716.27z"/>
            <path fill="#FFCB82" d="M285.749 248.808l2 .78a.892.892 0 1 1 .4 1.642.913.913 0 0 1-1.042-.038l-2-.78a.902.902 0 0 1-.787-.68.892.892 0 0 1 .385-.962.913.913 0 0 1 1.044.038z"/>
            <path fill="#FFCB82" d="M285.251 250.35l2 .78a.903.903 0 0 1 .796.676.892.892 0 0 1-.382.966.913.913 0 0 1-1.047-.038l-2-.78a.894.894 0 0 1-.499-1.12.908.908 0 0 1 1.132-.484z"/>
            <path fill="#FFCB82" d="M284.817 251.874l2 .78c.32.242.44.666.293 1.038a.906.906 0 0 1-.926.566l-2.01-.78a.893.893 0 0 1-.49-1.12.908.908 0 0 1 1.133-.484z"/>
            <g>
                <path fill="#E6E6E6" d="M239.659 254.913l1.475-19.758-11.927 2.616 4.49 14.714z"/>
                <path fill="#F1CFBD" d="M211.068 269.362l-.871 20.724-1.744 8.19 1.133 5.299 1.857 2.415c.32.1.666.037.934-.17.269-.205.426-.53.426-.876.13-1.37.584-7.56.584-7.56s.871-.369 1.02.82c.148 1.19.688 2.974 2.013 2.911l-.418-5.623-1.238-5.1 2.815-22.138 4.707-25.032-9.265 6.064-1.953 20.076z"/>
                <path fill="#000" d="M211.53 288.608a4.29 4.29 0 0 1-1.299-.144l-.07 1.595-1.743 8.19 1.134 5.299 1.856 2.415h.122c-.331-2.136-.959-4.38-1.299-6.515-.34-2.135.689-6.947 1.264-10.587a.445.445 0 0 1 .035-.253z" opacity=".1"/>
                <path fill="#3D89BA" d="M219.663 288.78l-.54 14.84.078 75.32 6.171-.64 8.255-73.977 1.394.09 3.112 74.553 6.163-.64 4.672-73.273-.392-16.22c-.157.145-28.8-.026-28.913-.053z"/>
                <path fill="#000" d="M235.056 304.386l3.051 73.715h2.11l-4.751-73.724z" opacity=".1"/>
                <path fill="#454444" d="M220.691 238.023a6.73 6.73 0 0 1-.226-1.27l-1.264.486c-2.63.686-4.851 2.503-6.102 4.992l-3.164 26.13-1.002 21.329c1.534 0 4.62.108 6.154.08l2.362-19.084 2.955-14.93s5.169-2.757 4.768-4.226c-1.264-4.56-3.226-8.893-4.48-13.507z"/>
                <path fill="#3D89BA" d="M254.573 242.24c-.928-2.47-2.977-4.305-5.474-4.902l-8.342-3.207c-.044 4.108-2.615 26.545-2.798 27.545 0 3.658-.419 34.024-.419 34.024s3.426 3.28 12.3 2.478l-.21-36.385 4.951-19.553h-.008z"/>
                <path fill="#FFCB82" d="M257.231 270.263l.872 20.724 1.743 8.19-1.133 5.299-1.857 2.415c-.32.1-.666.037-.934-.169a1.103 1.103 0 0 1-.426-.876c-.13-1.37-.584-7.56-.584-7.56s-.871-.37-1.02.82c-.148 1.189-.688 2.973-2.013 2.91l.418-5.623 1.238-5.1-2.815-22.138-4.707-25.032 9.266 6.064 1.952 20.076z"/>
                <path fill="#000" d="M256.77 289.51a4.29 4.29 0 0 0 1.298-.145l.07 1.595 1.743 8.19-1.133 5.299-1.857 2.415h-.122c.331-2.136.959-4.38 1.299-6.515.34-2.135-.689-6.947-1.264-10.587a.445.445 0 0 0-.035-.253z" opacity=".1"/>
                <path fill="#3D89BA" d="M247.608 238.924a6.73 6.73 0 0 0 .227-1.27l1.264.486c2.63.686 4.85 2.503 6.101 4.992l3.164 26.13 1.003 21.329c-1.534 0-4.62.108-6.154.08l-2.362-19.084-2.955-14.93s-5.17-2.757-4.768-4.226c1.264-4.56 3.225-8.893 4.48-13.507z"/>
                <path fill="#FFF" d="M258.32 291.266l-4.802.09v-.675l4.803-.1z"/>
                <path fill="#286B9E" d="M238.133 261.162c-.523-.414-.453 0-.575-.64 0-.18-.07-.35-.114-.531.044 10.155.096 35.69.096 35.69a8.81 8.81 0 0 0 2.973 1.595c-1.805-3.604-1.508-9.605-1.613-12.677-.244-7.47-.34-15.994-.767-23.437z"/>
                <path fill="#3D89BA" d="M228.51 233.338l-9.893 3.991c-2.5.598-4.55 2.438-5.474 4.911l6.973 14.913.235 18.21-1.743 22.13s7.54.9 10.538.784c4.76-.154 8.142-1.046 8.717-2.487 0 0 .305-30.988.096-34.412-1.194-4.721-7.993-24.742-9.449-28.04z"/>
                <path fill="#ED6C0D" d="M235.353 239.5l-1.657 1.65.985 2.595h2.59l1.045-2.595-1.778-1.712zM234.681 243.745l-.915 5.55 4.289 12.083.958-8.298-1.743-9.335z"/>
                <path fill="#286B9E" d="M241 234.086l-3.041 27.554 7.278-20.643-1.909-.865 2.38-4.118z"/>
                <path fill="#286B9E" d="M224.57 234.942l2.484 4.225-1.909.865 12.91 21.346-9.292-28.148zM241.785 254.188l7.723-.973.122-.577-7.723.982z"/>
                <path fill="#FFCB82" d="M226.75 222.219c0 4.307 4.358 9.353 8.533 9.353a7.4 7.4 0 0 0 5.322-2.281 7.912 7.912 0 0 0 2.2-5.505v-9.407h-16.134l.078 7.84z"/>
                <path fill="#FFCB82" d="M229.896 235.752c0 2.47 7.2 5.236 8.96 0v-10.55h-8.96v10.55z"/>
                <path fill="#12406D" d="M226.035 214.307v6.092s.252 6.676 3.852 8.623l-.653-5.11s-2.04.289-2.04-4.01c0-1.576.601-1.621 1.08-1.621.637 0 1.116 1 1.116 1h1.203v-2.424h.044a2.387 2.387 0 0 1 .66-1.776 2.226 2.226 0 0 1 1.72-.684h9.797s1.865-.108 1.865-6.073h-11.523s-7.121-1.009-7.121 5.983z"/>
                <path fill="#000" d="M232.24 230.12c1.642 1.97 4.366 2.537 6.617 1.38v-.902c-2.964 1.785-6.616-.477-6.616-.477zM239.38 222.831h-1.997c1.36 2.073 2.615.217 2.615.217l-.801-5.686.183 5.47z" opacity=".1"/>
                <path fill="#FFF" d="M209.979 290.365l4.802.09v-.675l-4.802-.1z"/>
                <path fill="#FFCB82" d="M211.068 269.362l-.871 20.724-1.744 8.19 1.133 5.299 1.857 2.415c.32.1.666.037.934-.17.269-.205.426-.53.426-.876.13-1.37.584-7.56.584-7.56s.871-.369 1.02.82c.148 1.19.688 2.974 2.013 2.911l-.418-5.623-1.238-5.1 2.815-22.138 4.707-25.032-9.265 6.064-1.953 20.076z"/>
                <path fill="#000" d="M211.53 288.608a4.29 4.29 0 0 1-1.299-.144l-.07 1.595-1.743 8.19 1.134 5.299 1.856 2.415h.122c-.331-2.136-.959-4.38-1.299-6.515-.34-2.135.689-6.947 1.264-10.587a.445.445 0 0 1 .035-.253z" opacity=".1"/>
                <path fill="#3D89BA" d="M220.691 238.023a6.73 6.73 0 0 1-.226-1.27l-1.264.486c-2.63.686-4.851 2.503-6.102 4.992l-3.164 26.13-1.002 21.329c1.534 0 4.62.108 6.154.08l2.362-19.084 2.955-14.93s5.169-2.757 4.768-4.226c-1.264-4.56-3.226-8.893-4.48-13.507z"/>
                <path fill="#FFF" d="M209.979 290.365l4.802.09v-.675l-4.802-.1z"/>
                <path fill="#12406D" d="M229.4 381.084l-4.36-2.983h-5.874a12.189 12.189 0 0 0-.941 6.353h15.053s-.244-2.983-3.879-3.37z"/>
                <path fill="#000" d="M219.663 379.894c.02-.615.134-1.224.34-1.802h-.872a12.189 12.189 0 0 0-.941 6.353h1.926a6.302 6.302 0 0 1-.227-.613 12.258 12.258 0 0 1-.226-3.938z" opacity=".1"/>
                <path fill="#12406D" d="M251.443 381.084l-6.833-2.983h-6.52a12.068 12.068 0 0 0-.942 6.353h18.183s-.262-2.983-3.888-3.37z"/>
                <path fill="#000" d="M239.38 378.101h-1.23a12.068 12.068 0 0 0-.94 6.353h3.486a6.545 6.545 0 0 1-1.552-4.803c.012-.525.091-1.046.236-1.55z" opacity=".1"/>
                <path fill="#FFF" d="M235.876 238.798l3.12 3.28 2.005-7.992-1.927-2.46zM227.726 233.653l4.776 8.794 3.374-3.649-5.945-7.55z"/>
            </g>
        </g>
    </g>
</svg>
